<?xml version="1.0" encoding="iso-8859-1"?>
<!-- Generator: Adobe Illustrator 19.0.0, SVG Export Plug-In . SVG Version: 6.00 Build 0)  -->
<svg xmlns="http://www.w3.org/2000/svg" xmlns:xlink="http://www.w3.org/1999/xlink" version="1.1" id="Capa_1" x="0px" y="0px" viewBox="0 0 455 455" style="enable-background:new 0 0 455 455;" xml:space="preserve" width="30" height="30">
<g>
	<polygon style="fill:#98D9D5;" points="415,0 395,227.5 415,455 455,455 455,0  "/>
	<polygon style="fill:#6DA8D6;" points="375,0 285,455 415,455 415,0  "/>
	<polygon style="fill:#C1E8E6;" points="40,0 40,455 285,455 295,375 375,365 375,0  "/>
	<polygon style="fill:#98D9D5;" points="285,365 285,455 375,365  "/>
	<rect x="122.5" y="0" style="fill:#F2484B;" width="15" height="455"/>
	<path style="fill:#185F8D;" d="M65,332.5H15c-8.284,0-15,6.716-15,15s6.716,15,15,15h50c8.284,0,15-6.716,15-15   S73.284,332.5,65,332.5z"/>
	<path style="fill:#185F8D;" d="M65,212.5H15c-8.284,0-15,6.716-15,15s6.716,15,15,15h50c8.284,0,15-6.716,15-15   S73.284,212.5,65,212.5z"/>
	<path style="fill:#185F8D;" d="M65,92.5H15c-8.284,0-15,6.716-15,15s6.716,15,15,15h50c8.284,0,15-6.716,15-15S73.284,92.5,65,92.5   z"/>
</g>















</svg>
